<svg width="120" height="27" viewBox="0 0 120 27" fill="none" xmlns="http://www.w3.org/2000/svg">
<g clip-path="url(#clip0_1_6)">
<rect width="120" height="27" fill="#141923"/>
<path d="M20.9857 24.668C20.5485 24.9595 19.9534 25.2874 19.2004 25.6518C18.4475 26.0162 17.5609 26.332 16.5408 26.5992C15.5449 26.8421 14.4519 26.9514 13.2618 26.9271C11.1972 26.9028 9.35125 26.5385 7.72389 25.834C6.09653 25.1296 4.69991 24.17 3.53404 22.9555C2.39246 21.7166 1.51806 20.3077 0.910836 18.7287C0.303612 17.1498 0 15.4615 0 13.664C0 11.6964 0.315756 9.88664 0.947269 8.23482C1.60307 6.5587 2.51391 5.11336 3.67978 3.89878C4.84565 2.65992 6.21797 1.7004 7.79675 1.02024C9.39983 0.340081 11.1486 0 13.0432 0C14.622 0 16.055 0.218623 17.3423 0.655868C18.6296 1.06882 19.7348 1.55465 20.6578 2.11336L19.2369 5.42915C18.5082 4.94332 17.6216 4.48178 16.5772 4.04453C15.5328 3.60729 14.3912 3.38866 13.1525 3.38866C11.8652 3.38866 10.6507 3.65587 9.50913 4.19028C8.36754 4.7004 7.35955 5.417 6.48515 6.34008C5.61075 7.23886 4.91851 8.30769 4.40845 9.54656C3.92267 10.7611 3.67978 12.0729 3.67978 13.4818C3.67978 15.3765 4.0684 17.0891 4.84565 18.6194C5.64718 20.1255 6.76447 21.3158 8.19752 22.1903C9.65486 23.0648 11.3551 23.502 13.2982 23.502C14.6584 23.502 15.8485 23.3077 16.8687 22.919C17.9131 22.5061 18.7754 22.0324 19.4555 21.498L20.9857 24.668Z" fill="white"/>
<path d="M26.0985 11.5506H29.4868V26.6356H26.0985V11.5506ZM25.8435 6.12146C25.8435 5.56275 26.05 5.11336 26.4629 4.77328C26.9001 4.40891 27.3737 4.22672 27.8838 4.22672C28.3938 4.22672 28.8553 4.40891 29.2682 4.77328C29.6812 5.11336 29.8876 5.56275 29.8876 6.12146C29.8876 6.68016 29.6812 7.1417 29.2682 7.50607C28.8553 7.84615 28.3938 8.01619 27.8838 8.01619C27.3737 8.01619 26.9001 7.84615 26.4629 7.50607C26.05 7.1417 25.8435 6.68016 25.8435 6.12146Z" fill="white"/>
<path d="M38.4452 11.5506L38.6638 14.4656C39.1739 13.3968 39.9633 12.5466 41.032 11.915C42.1007 11.2834 43.3394 10.9676 44.7482 10.9676C46.1569 10.9676 47.3107 11.3927 48.2094 12.2429C49.1323 13.0688 49.6181 14.1498 49.6667 15.4858V26.6356H46.242V16.6518C46.1934 15.8502 45.9383 15.1943 45.4769 14.6842C45.0397 14.1741 44.3474 13.9069 43.4001 13.8826C42.0885 13.8826 40.9834 14.417 40.0847 15.4858C39.2103 16.5304 38.7731 17.8907 38.7731 19.5668V26.6356H35.3848V11.5506H38.4452Z" fill="white"/>
<path d="M62.518 27C60.8178 27 59.3362 26.6599 58.0731 25.9798C56.8344 25.2753 55.875 24.3158 55.1949 23.1012C54.5391 21.8866 54.2112 20.5142 54.2112 18.9838C54.2112 17.502 54.5755 16.1538 55.3042 14.9393C56.0572 13.7004 57.0652 12.7287 58.3282 12.0243C59.6155 11.2955 61.0364 10.9312 62.5909 10.9312C64.5826 10.9312 66.2342 11.5142 67.5458 12.6802C68.8574 13.8462 69.7561 15.4494 70.2419 17.4899L58.2917 21.6802C58.7047 22.4332 59.2876 23.0283 60.0406 23.4656C60.7935 23.8785 61.6436 24.085 62.5909 24.085C63.271 24.085 63.9146 23.9636 64.5219 23.7206C65.1291 23.4777 65.712 23.1619 66.2707 22.7733L67.8373 25.2874C67.0601 25.7976 66.1978 26.2105 65.2505 26.5263C64.3275 26.8421 63.4167 27 62.518 27ZM57.5631 18.8016C57.5388 19.0931 57.5509 19.3725 57.5995 19.6397L66.38 16.3968C66.0399 15.668 65.542 15.0243 64.8862 14.4656C64.2547 13.9069 63.4046 13.6275 62.3359 13.6275C60.9514 13.6275 59.8098 14.1134 58.9111 15.085C58.0124 16.0567 57.5631 17.2955 57.5631 18.8016Z" fill="white"/>
<path d="M77.5115 11.5506L77.7301 14.4291C78.313 13.336 79.1024 12.4858 80.0983 11.8785C81.1184 11.247 82.2843 10.9312 83.5959 10.9312C84.8346 10.9312 85.8669 11.2227 86.6927 11.8057C87.5429 12.3887 88.0651 13.1781 88.2594 14.1741C88.8666 13.1538 89.656 12.3644 90.6276 11.8057C91.6234 11.2227 92.68 10.9312 93.7973 10.9312C95.2546 10.9312 96.4083 11.3563 97.2584 12.2065C98.1329 13.0567 98.5943 14.1377 98.6429 15.4494V26.6356H95.2546V16.7247C95.206 15.9474 94.9996 15.3036 94.6352 14.7935C94.2952 14.2591 93.7001 13.9676 92.85 13.919C91.9513 13.919 91.1619 14.1862 90.4818 14.7206C89.8017 15.2308 89.2674 15.9109 88.8787 16.7611C88.4901 17.6113 88.2837 18.5101 88.2594 19.4575V26.6356H84.8346V16.7247C84.8103 15.9474 84.6039 15.3036 84.2153 14.7935C83.8509 14.2591 83.2316 13.9676 82.3572 13.919C81.4828 13.919 80.7055 14.1862 80.0254 14.7206C79.3453 15.2308 78.811 15.9109 78.4224 16.7611C78.0337 17.6113 77.8394 18.5223 77.8394 19.4939V26.6356H74.4511V11.5506H77.5115Z" fill="white"/>
<path d="M110.819 27C109.386 27 108.086 26.6964 106.92 26.0891C105.779 25.4818 104.868 24.5951 104.188 23.4291C103.532 22.2389 103.204 20.7935 103.204 19.0931C103.204 17.3927 103.544 15.9352 104.224 14.7206C104.929 13.5061 105.864 12.5708 107.03 11.915C108.22 11.2591 109.519 10.9312 110.928 10.9312C112.288 10.9312 113.442 11.2227 114.389 11.8057C115.337 12.3887 116.077 13.0931 116.612 13.919L116.867 11.5506H120V26.6356H116.612V24.1579C116.32 24.5466 115.895 24.9595 115.337 25.3968C114.802 25.834 114.146 26.2105 113.369 26.5263C112.616 26.8421 111.766 27 110.819 27ZM111.73 24.1943C112.968 24.1943 114.025 23.8542 114.899 23.1741C115.774 22.4696 116.345 21.5223 116.612 20.332V17.3441C116.32 16.2996 115.713 15.4372 114.79 14.7571C113.867 14.0769 112.81 13.7368 111.62 13.7368C110.697 13.7368 109.859 13.9555 109.106 14.3927C108.353 14.83 107.746 15.4372 107.285 16.2146C106.848 16.9919 106.629 17.8907 106.629 18.9109C106.629 19.9069 106.86 20.8057 107.321 21.6073C107.783 22.3846 108.402 23.0162 109.179 23.502C109.957 23.9636 110.807 24.1943 111.73 24.1943Z" fill="white"/>
<path d="M22.5259 14.1678L13.0522 21.3276V13.9973V6.66699L22.5259 14.1678Z" fill="#40467C"/>
</g>
<defs>
<clipPath id="clip0_1_6">
<rect width="120" height="27" fill="white"/>
</clipPath>
</defs>
</svg>
